<?xml version="1.0" encoding="UTF-8" standalone="no"?>
<!DOCTYPE svg PUBLIC "-//W3C//DTD SVG 1.1//EN"
 "http://www.w3.org/Graphics/SVG/1.1/DTD/svg11.dtd">
<!-- Generated by graphviz version 7.0.5 (20221223.1930)
 -->
<!-- Title: g Pages: 1 -->
<svg width="1166pt" height="232pt"
 viewBox="0.00 0.00 1166.00 232.00" xmlns="http://www.w3.org/2000/svg" xmlns:xlink="http://www.w3.org/1999/xlink">
<g id="graph0" class="graph" transform="scale(1 1) rotate(0) translate(4 228)">
<title>g</title>
<polygon fill="white" stroke="none" points="-4,4 -4,-228 1162,-228 1162,4 -4,4"/>
<!-- null1 -->
<g id="node1" class="node">
<title>null1</title>
<polygon fill="none" stroke="black" points="222.5,-0.5 222.5,-36.5 276.5,-36.5 276.5,-0.5 222.5,-0.5"/>
<text text-anchor="middle" x="249.5" y="-14.8" font-family="Times,serif" font-size="14.00">null</text>
</g>
<!-- network -->
<g id="node2" class="node">
<title>network</title>
<polygon fill="none" stroke="black" points="0,-33 0,-102 119,-102 119,-33 0,-33"/>
<text text-anchor="middle" x="59.5" y="-86.8" font-family="Times,serif" font-size="14.00">nextRecv</text>
<polyline fill="none" stroke="black" points="0,-79 119,-79"/>
<text text-anchor="middle" x="59.5" y="-63.8" font-family="Times,serif" font-size="14.00">BIONetworkLayer</text>
<polyline fill="none" stroke="black" points="0,-56 119,-56"/>
<text text-anchor="middle" x="59.5" y="-40.8" font-family="Times,serif" font-size="14.00">nextSend</text>
</g>
<!-- network&#45;&gt;null1 -->
<g id="edge1" class="edge">
<title>network:f2&#45;&gt;null1</title>
<path fill="none" stroke="black" d="M119,-44.5C150.76,-44.5 186.06,-36.89 211.77,-29.9"/>
<polygon fill="black" stroke="black" points="212.39,-33.37 221.06,-27.28 210.49,-26.63 212.39,-33.37"/>
</g>
<!-- filter1 -->
<g id="node3" class="node">
<title>filter1</title>
<polygon fill="none" stroke="black" points="155,-56 155,-125 344,-125 344,-56 155,-56"/>
<text text-anchor="middle" x="249.5" y="-109.8" font-family="Times,serif" font-size="14.00">nextRecv</text>
<polyline fill="none" stroke="black" points="155,-102 344,-102"/>
<text text-anchor="middle" x="249.5" y="-86.8" font-family="Times,serif" font-size="14.00">AgentProtocolClientFilterLayer</text>
<polyline fill="none" stroke="black" points="155,-79 344,-79"/>
<text text-anchor="middle" x="249.5" y="-63.8" font-family="Times,serif" font-size="14.00">nextSend</text>
</g>
<!-- network&#45;&gt;filter1 -->
<g id="edge2" class="edge">
<title>network:f0&#45;&gt;filter1:f1</title>
<path fill="none" stroke="black" d="M119,-90.5C130.38,-90.5 135.68,-90.5 143.55,-90.5"/>
<polygon fill="black" stroke="black" points="143.49,-94 153.49,-90.5 143.49,-87 143.49,-94"/>
</g>
<!-- filter1&#45;&gt;network -->
<g id="edge4" class="edge">
<title>filter1:f2&#45;&gt;network:f1</title>
<path fill="none" stroke="black" d="M155,-67.5C143.62,-67.5 138.32,-67.5 130.45,-67.5"/>
<polygon fill="black" stroke="black" points="130.51,-64 120.51,-67.5 130.51,-71 130.51,-64"/>
</g>
<!-- filter2 -->
<g id="node4" class="node">
<title>filter2</title>
<polygon fill="none" stroke="black" points="380,-79 380,-148 480,-148 480,-79 380,-79"/>
<text text-anchor="middle" x="430" y="-132.8" font-family="Times,serif" font-size="14.00">nextRecv</text>
<polyline fill="none" stroke="black" points="380,-125 480,-125"/>
<text text-anchor="middle" x="430" y="-109.8" font-family="Times,serif" font-size="14.00">AckFilterLayer</text>
<polyline fill="none" stroke="black" points="380,-102 480,-102"/>
<text text-anchor="middle" x="430" y="-86.8" font-family="Times,serif" font-size="14.00">nextSend</text>
</g>
<!-- filter1&#45;&gt;filter2 -->
<g id="edge3" class="edge">
<title>filter1:f0&#45;&gt;filter2:f1</title>
<path fill="none" stroke="black" d="M344,-113.5C355.38,-113.5 360.68,-113.5 368.55,-113.5"/>
<polygon fill="black" stroke="black" points="368.49,-117 378.49,-113.5 368.49,-110 368.49,-117"/>
</g>
<!-- filter2&#45;&gt;filter1 -->
<g id="edge6" class="edge">
<title>filter2:f2&#45;&gt;filter1:f1</title>
<path fill="none" stroke="black" d="M380,-90.5C368.62,-90.5 363.32,-90.5 355.45,-90.5"/>
<polygon fill="black" stroke="black" points="355.51,-87 345.51,-90.5 355.51,-94 355.51,-87"/>
</g>
<!-- filter3 -->
<g id="node5" class="node">
<title>filter3</title>
<polygon fill="none" stroke="black" points="516,-102 516,-171 655,-171 655,-102 516,-102"/>
<text text-anchor="middle" x="585.5" y="-155.8" font-family="Times,serif" font-size="14.00">nextRecv</text>
<polyline fill="none" stroke="black" points="516,-148 655,-148"/>
<text text-anchor="middle" x="585.5" y="-132.8" font-family="Times,serif" font-size="14.00">SSLEngineFilterLayer</text>
<polyline fill="none" stroke="black" points="516,-125 655,-125"/>
<text text-anchor="middle" x="585.5" y="-109.8" font-family="Times,serif" font-size="14.00">nextSend</text>
</g>
<!-- filter2&#45;&gt;filter3 -->
<g id="edge5" class="edge">
<title>filter2:f0&#45;&gt;filter3:f1</title>
<path fill="none" stroke="black" d="M480,-136.5C491.38,-136.5 496.68,-136.5 504.55,-136.5"/>
<polygon fill="black" stroke="black" points="504.49,-140 514.49,-136.5 504.49,-133 504.49,-140"/>
</g>
<!-- filter3&#45;&gt;filter2 -->
<g id="edge8" class="edge">
<title>filter3:f2&#45;&gt;filter2:f1</title>
<path fill="none" stroke="black" d="M516,-113.5C504.62,-113.5 499.32,-113.5 491.45,-113.5"/>
<polygon fill="black" stroke="black" points="491.51,-110 481.51,-113.5 491.51,-117 491.51,-110"/>
</g>
<!-- filter4 -->
<g id="node6" class="node">
<title>filter4</title>
<polygon fill="none" stroke="black" points="691,-125 691,-194 875,-194 875,-125 691,-125"/>
<text text-anchor="middle" x="783" y="-178.8" font-family="Times,serif" font-size="14.00">nextRecv</text>
<polyline fill="none" stroke="black" points="691,-171 875,-171"/>
<text text-anchor="middle" x="783" y="-155.8" font-family="Times,serif" font-size="14.00">ConnectionHeadersFilterLayer</text>
<polyline fill="none" stroke="black" points="691,-148 875,-148"/>
<text text-anchor="middle" x="783" y="-132.8" font-family="Times,serif" font-size="14.00">nextSend</text>
</g>
<!-- filter3&#45;&gt;filter4 -->
<g id="edge7" class="edge">
<title>filter3:f0&#45;&gt;filter4:f1</title>
<path fill="none" stroke="black" d="M655,-159.5C666.38,-159.5 671.68,-159.5 679.55,-159.5"/>
<polygon fill="black" stroke="black" points="679.49,-163 689.49,-159.5 679.49,-156 679.49,-163"/>
</g>
<!-- filter4&#45;&gt;filter3 -->
<g id="edge10" class="edge">
<title>filter4:f2&#45;&gt;filter3:f1</title>
<path fill="none" stroke="black" d="M691,-136.5C679.62,-136.5 674.32,-136.5 666.45,-136.5"/>
<polygon fill="black" stroke="black" points="666.51,-133 656.51,-136.5 666.51,-140 666.51,-133"/>
</g>
<!-- application -->
<g id="node7" class="node">
<title>application</title>
<polygon fill="none" stroke="black" points="911,-148 911,-217 1068,-217 1068,-148 911,-148"/>
<text text-anchor="middle" x="989.5" y="-201.8" font-family="Times,serif" font-size="14.00">nextRecv</text>
<polyline fill="none" stroke="black" points="911,-194 1068,-194"/>
<text text-anchor="middle" x="989.5" y="-178.8" font-family="Times,serif" font-size="14.00">ChannelApplicationLayer</text>
<polyline fill="none" stroke="black" points="911,-171 1068,-171"/>
<text text-anchor="middle" x="989.5" y="-155.8" font-family="Times,serif" font-size="14.00">nextSend</text>
</g>
<!-- filter4&#45;&gt;application -->
<g id="edge9" class="edge">
<title>filter4:f0&#45;&gt;application:f1</title>
<path fill="none" stroke="black" d="M875,-182.5C886.38,-182.5 891.68,-182.5 899.55,-182.5"/>
<polygon fill="black" stroke="black" points="899.49,-186 909.49,-182.5 899.49,-179 899.49,-186"/>
</g>
<!-- application&#45;&gt;filter4 -->
<g id="edge12" class="edge">
<title>application:f2&#45;&gt;filter4:f1</title>
<path fill="none" stroke="black" d="M911,-159.5C899.62,-159.5 894.32,-159.5 886.45,-159.5"/>
<polygon fill="black" stroke="black" points="886.51,-156 876.51,-159.5 886.51,-163 886.51,-156"/>
</g>
<!-- null2 -->
<g id="node8" class="node">
<title>null2</title>
<polygon fill="none" stroke="black" points="1104,-187.5 1104,-223.5 1158,-223.5 1158,-187.5 1104,-187.5"/>
<text text-anchor="middle" x="1131" y="-201.8" font-family="Times,serif" font-size="14.00">null</text>
</g>
<!-- application&#45;&gt;null2 -->
<g id="edge11" class="edge">
<title>application:f0&#45;&gt;null2</title>
<path fill="none" stroke="black" d="M1068,-205.5C1075.96,-205.5 1084.48,-205.5 1092.59,-205.5"/>
<polygon fill="black" stroke="black" points="1092.54,-209 1102.54,-205.5 1092.54,-202 1092.54,-209"/>
</g>
</g>
</svg>
